<svg width="98" height="114" viewBox="0 0 98 114" fill="none" xmlns="http://www.w3.org/2000/svg">
<g clip-path="url(#clip0_285_598)">
<path d="M75.5814 47.2199C75.5814 52.4419 73.4227 57.1886 69.9446 60.6299C67.454 63.094 64.2871 64.8891 60.7533 65.7112V87.3724H38.5235V65.2645C30.8599 62.7717 25.2891 55.6078 25.2891 47.2199C25.2891 41.9978 27.4477 37.249 30.928 33.8078C34.4061 30.3665 39.2038 28.2288 44.4819 28.2288H56.3885C66.9447 28.2288 75.5814 36.7758 75.5814 47.2199Z" fill="#F9C540" stroke="#2A2E32" stroke-width="0.5" stroke-linejoin="round"/>
<path d="M52.8901 109.303V110.145C52.8901 111.914 51.4284 113.36 49.6408 113.36C47.8533 113.36 46.3936 111.914 46.3936 110.145V109.303C46.7131 109.338 47.0368 109.356 47.3667 109.356H51.9149C52.2448 109.356 52.5706 109.338 52.8901 109.303Z" fill="#FFFEFD" stroke="#2A2E32" stroke-width="0.5" stroke-miterlimit="10"/>
<path d="M60.7552 87.3643V100.609C60.7552 105.113 57.3141 108.824 52.8896 109.303C52.5701 109.338 52.2443 109.356 51.9144 109.356H47.3662C47.0363 109.356 46.7126 109.338 46.393 109.303C41.9685 108.824 38.5254 105.113 38.5254 100.609V87.3643H60.7552Z" fill="#FFAA33" stroke="#2A2E32" stroke-width="0.5" stroke-linejoin="round"/>
<path d="M38.5254 88.8167L60.7552 91.6439" stroke="#2A2E32" stroke-width="0.5" stroke-miterlimit="10"/>
<path d="M38.5254 93.0862L60.7552 95.9155" stroke="#2A2E32" stroke-width="0.5" stroke-miterlimit="10"/>
<path d="M38.5254 97.4839L60.7552 100.313" stroke="#2A2E32" stroke-width="0.5" stroke-miterlimit="10"/>
<path d="M38.5254 101.59L59.9223 104.314" stroke="#2A2E32" stroke-width="0.5" stroke-miterlimit="10"/>
<path d="M40.4209 105.939L56.6407 108.002" stroke="#2A2E32" stroke-width="0.5" stroke-miterlimit="10"/>
<path d="M46.1336 38.2322C45.4697 37.8487 44.7151 37.6467 43.9461 37.6467H43.7585C42.1915 37.6467 40.7112 38.0282 39.4061 38.6993C36.365 40.2659 34.2744 43.4195 34.2744 47.0301V48.4274C34.2744 53.5882 38.5422 57.8107 43.7585 57.8107H45.5295V87.3724H53.7497V57.8107H55.5208C60.737 57.8107 65.0048 53.5882 65.0048 48.4274V47.0301L65.0028 47.0321C65.0028 42.8565 62.207 39.2929 58.3763 38.0873C57.4733 37.8018 56.5145 37.6488 55.5187 37.6488H54.8754C54.0858 37.6488 53.2982 37.8303 52.6137 38.224C52.5374 38.2668 52.4632 38.3117 52.391 38.3586C53.7044 39.2031 54.5765 40.6678 54.5765 42.3241C54.5765 43.6256 54.0384 44.8107 53.1704 45.6675L53.1642 45.6736C52.7415 46.0917 52.0529 46.0979 51.6261 45.6797C50.7519 44.8209 50.2076 43.6317 50.2076 42.3221C50.2076 40.6657 51.0798 39.1991 52.3931 38.3566C52.255 38.2668 52.1127 38.1853 51.9642 38.1098C51.3354 37.7875 50.6303 37.6467 49.9231 37.6467H48.3211C47.5521 37.6467 46.7975 37.8487 46.1336 38.2322ZM46.1336 38.2322C44.7089 39.0522 43.7461 40.5821 43.7461 42.3221C43.7461 43.6296 44.2883 44.8189 45.1625 45.6756C45.6945 46.1999 46.5748 46.1978 47.1068 45.6736C47.1088 45.6715 47.1129 45.6675 47.115 45.6654C47.983 44.8087 48.5211 43.6235 48.5211 42.3221C48.5211 40.5821 47.5583 39.0522 46.1336 38.2322Z" stroke="#2A2E32" stroke-width="0.5" stroke-linecap="round" stroke-linejoin="round"/>
<path d="M98.7123 48.1326H92.9375" stroke="#2A2E32" stroke-width="0.5" stroke-miterlimit="10"/>
<path d="M97.6674 47.0989H93.9824C93.4053 47.0989 92.9375 47.5617 92.9375 48.1327C92.9375 48.7036 93.4053 49.1665 93.9824 49.1665H97.6674C98.2445 49.1665 98.7123 48.7036 98.7123 48.1327C98.7123 47.5617 98.2445 47.0989 97.6674 47.0989Z" fill="#F9C540" stroke="#2A2E32" stroke-width="0.5" stroke-miterlimit="10"/>
<path d="M84.4737 82.1399L80.3916 78.0989" stroke="#2A2E32" stroke-width="0.5" stroke-miterlimit="10"/>
<path d="M81.8699 78.1042C81.4618 77.7005 80.8002 77.7005 80.3922 78.1042C79.9841 78.5079 79.9841 79.1625 80.3922 79.5662L82.9979 82.1443C83.4059 82.548 84.0675 82.548 84.4756 82.1443C84.8837 81.7405 84.8837 81.086 84.4756 80.6822L81.8699 78.1042Z" fill="#F9C540" stroke="#2A2E32" stroke-width="0.5" stroke-miterlimit="10"/>
<path d="M15.7334 82.1397L19.8155 78.0986" stroke="#2A2E32" stroke-width="0.5" stroke-miterlimit="10"/>
<path d="M18.3368 78.1038L15.731 80.6818C15.323 81.0856 15.323 81.7401 15.731 82.1439C16.1391 82.5476 16.8007 82.5476 17.2088 82.1439L19.8145 79.5658C20.2225 79.1621 20.2225 78.5075 19.8145 78.1038C19.4064 77.7001 18.7448 77.7001 18.3368 78.1038Z" fill="#F9C540" stroke="#2A2E32" stroke-width="0.5" stroke-miterlimit="10"/>
<path d="M1.49414 48.1326H7.26897" stroke="#2A2E32" stroke-width="0.5" stroke-miterlimit="10"/>
<path d="M6.22407 47.0986H2.53904C1.96196 47.0986 1.49414 47.5615 1.49414 48.1324C1.49414 48.7034 1.96196 49.1662 2.53904 49.1662H6.22407C6.80115 49.1662 7.26897 48.7034 7.26897 48.1324C7.26897 47.5615 6.80115 47.0986 6.22407 47.0986Z" fill="#F9C540" stroke="#2A2E32" stroke-width="0.5" stroke-miterlimit="10"/>
<path d="M15.7324 14.1267L19.8145 18.1654" stroke="#2A2E32" stroke-width="0.5" stroke-miterlimit="10"/>
<path d="M17.2107 14.1274C16.8027 13.7237 16.1411 13.7237 15.733 14.1274C15.3249 14.5311 15.3249 15.1857 15.733 15.5894L18.3387 18.1674C18.7468 18.5712 19.4084 18.5712 19.8164 18.1674C20.2245 17.7637 20.2245 17.1091 19.8164 16.7054L17.2107 14.1274Z" fill="#F9C540" stroke="#2A2E32" stroke-width="0.5" stroke-miterlimit="10"/>
<path d="M50.1035 0.0397949V5.75331" stroke="#2A2E32" stroke-width="0.5" stroke-miterlimit="10"/>
<path d="M51.1484 1.0736C51.1484 0.502646 50.6806 0.0397949 50.1035 0.0397949C49.5264 0.0397949 49.0586 0.502646 49.0586 1.0736V4.7195C49.0586 5.29045 49.5264 5.75331 50.1035 5.75331C50.6806 5.75331 51.1484 5.29045 51.1484 4.7195V1.0736Z" fill="#F9C540" stroke="#2A2E32" stroke-width="0.5" stroke-miterlimit="10"/>
<path d="M84.4737 14.1272L80.3916 18.1659" stroke="#2A2E32" stroke-width="0.5" stroke-miterlimit="10"/>
<path d="M82.991 14.1172L80.3853 16.6953C79.9773 17.099 79.9773 17.7536 80.3853 18.1573C80.7934 18.561 81.455 18.561 81.8631 18.1573L84.4688 15.5792C84.8768 15.1755 84.8768 14.5209 84.4688 14.1172C84.0607 13.7135 83.3991 13.7135 82.991 14.1172Z" fill="#F9C540" stroke="#2A2E32" stroke-width="0.5" stroke-miterlimit="10"/>
<path d="M98.7123 48.1326H92.9375" stroke="#2A2E32" stroke-width="0.5" stroke-miterlimit="10"/>
<path d="M97.6674 47.0989H93.9824C93.4053 47.0989 92.9375 47.5617 92.9375 48.1327C92.9375 48.7036 93.4053 49.1665 93.9824 49.1665H97.6674C98.2445 49.1665 98.7123 48.7036 98.7123 48.1327C98.7123 47.5617 98.2445 47.0989 97.6674 47.0989Z" fill="#F9C540" stroke="#2A2E32" stroke-width="0.5" stroke-miterlimit="10"/>
</g>
<defs>
<clipPath id="clip0_285_598">
<rect width="97" height="113" fill="white" transform="translate(0.5 0.394775)"/>
</clipPath>
</defs>
</svg>
