<svg xmlns="http://www.w3.org/2000/svg" width="31" height="30" viewBox="0 0 31 30" fill="none">
  <path d="M22.3092 0H8.69077C4.1703 0 0.5 3.67655 0.5 8.21633V21.7837C0.5 26.3183 4.16511 30 8.69077 30H22.3092C26.8297 30 30.5 26.3235 30.5 21.7837V8.21633C30.5 3.68175 26.8349 0 22.3092 0ZM20.3341 15.507H16.7053V23.9418H13.823V15.507H10.0853V12.6157H13.823V11.3677C13.823 9.60999 14.0096 8.93396 14.3828 8.24233C14.7561 7.5403 15.3004 6.99428 16.0054 6.61467C16.7001 6.24025 17.3688 6.05304 19.121 6.05304C19.6498 6.05304 20.1216 6.10505 20.5259 6.20905L20.9095 6.30785V8.94436H19.121C17.9598 8.94436 17.6488 9.00676 17.3637 9.16277C17.1667 9.26677 17.0319 9.40718 16.923 9.60479C16.7675 9.896 16.7053 10.2028 16.7053 11.3677V12.6157H21.0495L20.3289 15.507H20.3341Z" fill="#2A2E32"/>
</svg>