<svg width="38" height="38" viewBox="0 0 38 38" fill="none" xmlns="http://www.w3.org/2000/svg">
<path d="M27.8404 0.394531H11.0443C5.46908 0.394531 0.942383 4.92894 0.942383 10.528V27.2611C0.942383 32.8537 5.46269 37.3945 11.0443 37.3945H27.8404C33.4157 37.3945 37.9424 32.8601 37.9424 27.2611V10.528C37.9424 4.93536 33.4221 0.394531 27.8404 0.394531ZM25.4045 19.5199H20.9289V29.9227H17.374V19.5199H12.7642V15.9539H17.374V14.4146C17.374 12.2468 17.6042 11.4131 18.0646 10.5601C18.5249 9.69424 19.1962 9.02081 20.0658 8.55262C20.9225 8.09084 21.7473 7.85995 23.9083 7.85995C24.5605 7.85995 25.1423 7.92409 25.641 8.05236L26.1141 8.17422V11.4259H23.9083C22.4762 11.4259 22.0925 11.5029 21.7409 11.6953C21.4979 11.8236 21.3317 11.9967 21.1974 12.2404C21.0056 12.5996 20.9289 12.978 20.9289 14.4146V15.9539H26.2868L25.3981 19.5199H25.4045Z" fill="#FFAA33"/>
</svg>
