<svg width="206" height="146" viewBox="0 0 206 146" fill="none" xmlns="http://www.w3.org/2000/svg">
<path d="M179.951 63.9567L152.791 59.6974C149.12 59.1217 145.678 61.6318 145.102 65.3039L144.044 72.0588C143.468 75.7309 145.978 79.1745 149.649 79.7502L176.808 84.0095C180.479 84.5852 183.921 82.0751 184.497 78.4029L185.555 71.6481C186.131 67.976 183.621 64.5324 179.951 63.9567Z" fill="#FFAA33" stroke="#2A2E32" stroke-width="0.5" stroke-linejoin="round"/>
<path d="M133.05 128.362L98.7602 125.089C91.1946 124.368 85.3701 119.44 85.8182 114.142L86.0008 111.96C86.4464 106.662 93.0014 102.918 100.567 103.639L134.857 106.912C142.422 107.633 148.247 112.561 147.799 117.859L147.616 120.042C147.17 125.34 140.615 129.083 133.05 128.362Z" fill="#FFAA33" stroke="#2A2E32" stroke-width="0.5" stroke-linejoin="round"/>
<path d="M185.004 75.1297L174.673 22.9421L144.578 69.0036C144.016 68.6431 143.858 67.8929 144.223 67.3351L174.478 21.0056C174.612 20.7961 174.86 20.6914 175.104 20.7377C175.347 20.7864 175.537 20.9764 175.583 21.22L185.961 73.7194C186.09 74.3746 185.662 75.0079 185.007 75.1297H185.004Z" fill="#FFAA33" stroke="#2A2E32" stroke-width="0.5" stroke-linejoin="round"/>
<path d="M46.2275 36.7654L174.442 21.6511" stroke="#2A2E32" stroke-width="0.5" stroke-linejoin="round"/>
<path d="M46.2902 37.3671L46.166 36.1638L174.381 21.047L174.505 22.2527L46.2902 37.3671Z" fill="#FFAA33" stroke="#2A2E32" stroke-width="0.5" stroke-linejoin="round"/>
<path d="M36.2129 130.024C36.2129 130.024 36.2178 130.028 36.2202 130.031C36.8606 130.618 37.8225 130.896 39.2932 130.776L59.0289 129.466L59.1043 129.461C59.3211 129.432 59.5159 129.373 59.6936 129.29C60.6238 128.857 61.028 127.758 61.3324 126.618C61.6684 125.369 62.0117 123.15 62.2163 121.715C62.3429 120.826 62.3088 119.925 62.114 119.048L60.6774 112.544C60.6019 111.835 60.2439 111.221 59.7277 110.803C59.2115 110.386 58.5346 110.164 57.826 110.24C56.7424 110.354 55.7611 111.105 55.6028 112.125C55.5444 112.5 55.5468 112.756 55.5225 113.092C55.5006 113.372 55.4421 114.098 55.4421 114.098L51.0932 111.146L43.4765 112.31L35.6748 113.043L35.7405 114.563" fill="#F9C540"/>
<path d="M36.2129 130.024C36.2129 130.024 36.2178 130.028 36.2202 130.031C36.8606 130.618 37.8225 130.896 39.2932 130.776L59.0289 129.466L59.1043 129.461C59.3211 129.432 59.5159 129.373 59.6936 129.29C60.6238 128.857 61.028 127.758 61.3324 126.618C61.6684 125.369 62.0117 123.15 62.2163 121.715C62.3429 120.826 62.3088 119.925 62.114 119.048L60.6774 112.544C60.6019 111.835 60.2439 111.221 59.7277 110.803C59.2115 110.386 58.5346 110.164 57.826 110.24C56.7424 110.354 55.7611 111.105 55.6028 112.125C55.5444 112.5 55.5468 112.756 55.5225 113.092C55.5006 113.372 55.4421 114.098 55.4421 114.098L51.0932 111.146L43.4765 112.31L35.6748 113.043L35.7405 114.563" stroke="#2A2E32" stroke-width="0.5" stroke-linejoin="round"/>
<path d="M49.798 114.071L49.7517 109.972L49.6275 99.5124C49.5107 98.4163 50.3118 97.4249 51.4075 97.308C51.9554 97.2495 52.4789 97.4225 52.8783 97.744C53.2776 98.068 53.5552 98.5405 53.6136 99.091L55.6079 112.125C55.5568 112.544 56.6695 117.969 56.6695 117.969" fill="#F9C540"/>
<path d="M49.798 114.071L49.7517 109.972L49.6275 99.5124C49.5107 98.4163 50.3118 97.4249 51.4075 97.308C51.9554 97.2495 52.4789 97.4225 52.8783 97.744C53.2776 98.068 53.5552 98.5405 53.6136 99.091L55.6079 112.125C55.5568 112.544 56.6695 117.969 56.6695 117.969" stroke="#2A2E32" stroke-width="0.5" stroke-linejoin="round"/>
<path d="M44.5361 114.537L44.7334 112.04L44.7918 111.273C44.6408 109.853 45.6781 108.571 47.0977 108.42C47.8039 108.345 48.4808 108.566 48.997 108.983C49.3185 109.246 49.579 109.582 49.747 109.972L49.7909 113.752" fill="#F9C540"/>
<path d="M44.5361 114.537L44.7334 112.04L44.7918 111.273C44.6408 109.853 45.6781 108.571 47.0977 108.42C47.8039 108.345 48.4808 108.566 48.997 108.983C49.3185 109.246 49.579 109.582 49.747 109.972L49.7909 113.752" stroke="#2A2E32" stroke-width="0.5" stroke-linejoin="round"/>
<path d="M36.2133 130.024C36.2133 130.024 36.1889 130.009 36.1792 129.999C35.6654 129.617 35.3148 129.052 35.2442 128.397L33.9853 123.364C33.8099 122.663 33.7539 121.937 33.8221 121.216L34.5234 113.723C34.3846 112.413 35.4317 111.219 36.8464 111.068C37.555 110.993 38.2295 111.192 38.7408 111.575C39.1304 111.865 39.4275 112.259 39.5785 112.72C39.559 112.873 39.559 113.031 39.5785 113.19L39.3544 115.584" fill="#F9C540"/>
<path d="M36.2133 130.024C36.2133 130.024 36.1889 130.009 36.1792 129.999C35.6654 129.617 35.3148 129.052 35.2442 128.397L33.9853 123.364C33.8099 122.663 33.7539 121.937 33.8221 121.216L34.5234 113.723C34.3846 112.413 35.4317 111.219 36.8464 111.068C37.555 110.993 38.2295 111.192 38.7408 111.575C39.1304 111.865 39.4275 112.259 39.5785 112.72C39.559 112.873 39.559 113.031 39.5785 113.19L39.3544 115.584" stroke="#2A2E32" stroke-width="0.5" stroke-linejoin="round"/>
<path d="M59.1057 129.463C59.0811 129.468 59.0564 129.471 59.0293 129.473V129.466L59.1057 129.461V129.463Z" fill="#F9C540" stroke="#2A2E32" stroke-width="0.5" stroke-linejoin="round"/>
<path d="M39.167 115.825L39.4592 112.098C39.4421 111.928 39.4397 111.757 39.4592 111.592C39.5663 110.388 40.9908 109.192 42.2448 109.241C44.4485 109.329 44.7212 110.561 44.7967 111.273L44.5678 114.795" fill="#F9C540"/>
<path d="M39.167 115.825L39.4592 112.098C39.4421 111.928 39.4397 111.757 39.4592 111.592C39.5663 110.388 40.9908 109.192 42.2448 109.241C44.4485 109.329 44.7212 110.561 44.7967 111.273L44.5678 114.795" stroke="#2A2E32" stroke-width="0.5" stroke-linejoin="round"/>
<path d="M59.6933 129.293C59.5277 129.383 59.3524 129.439 59.1698 129.458L59.1064 129.463C59.3232 129.434 59.518 129.376 59.6957 129.293H59.6933Z" fill="#F9C540" stroke="#2A2E32" stroke-width="0.5" stroke-linejoin="round"/>
<path d="M60.5909 78.3619L33.1266 79.5758C29.4145 79.7399 26.5382 82.8832 26.7023 86.5966L27.004 93.4273C27.168 97.1406 30.3102 100.018 34.0223 99.8538L61.4866 98.6399C65.1987 98.4758 68.075 95.3325 67.911 91.6192L67.6093 84.7884C67.4452 81.0751 64.303 78.1978 60.5909 78.3619Z" fill="#FFAA33" stroke="#2A2E32" stroke-width="0.5" stroke-linejoin="round"/>
<path d="M107.256 29.9013L116.808 115.937" stroke="#2A2E32" stroke-width="0.5" stroke-linejoin="round"/>
<path d="M107.858 29.829L106.655 29.9627L116.211 115.998L117.414 115.864L107.858 29.829Z" fill="#FFAA33" stroke="#2A2E32" stroke-width="0.5" stroke-linejoin="round"/>
<path d="M26.8953 91.2476C26.2671 91.0235 25.9432 90.3318 26.1721 89.7033L45.6569 36.5608C45.7422 36.3246 45.9613 36.1662 46.2121 36.1589C46.4727 36.1541 46.6918 36.3002 46.7868 36.5316L68.4144 87.2066C68.6774 87.8204 68.3876 88.5292 67.7716 88.785L46.2706 38.4437L26.8953 91.2452V91.2476Z" fill="#FFAA33" stroke="#2A2E32" stroke-width="0.5" stroke-linejoin="round"/>
<path d="M173.912 57.5089L174.297 57.7087C176.111 55.9159 178.171 51.9894 178.733 48.9373C178.75 48.8398 178.673 48.7546 178.575 48.757L177.36 48.8057C177.28 48.8082 177.214 48.8739 177.214 48.9543C177.204 49.5876 176.966 52.3206 173.915 57.5089H173.912Z" fill="#FFAA33" stroke="#2A2E32" stroke-width="0.5" stroke-linejoin="round"/>
<path d="M179.182 61.7424C179.182 64.831 176.681 67.3326 173.596 67.3326C171.443 67.3326 169.573 66.1147 168.641 64.3293C167.625 64.2221 166.656 63.8299 165.857 63.1406C163.551 61.1529 163.493 57.4407 165.726 54.8515C167.959 52.2622 172.439 51.1149 173.939 53.7602C174.818 55.3094 174.2 56.5419 174.426 57.3043C176.537 58.1033 179.184 59.3504 179.184 61.7424H179.182Z" fill="#F9C540" stroke="#2A2E32" stroke-width="0.5" stroke-linejoin="round"/>
<path d="M184.709 55.0828C183.562 54.5543 178.342 52.5277 174.424 57.3068C174.424 57.3068 179.143 59.4527 184.736 55.3459C184.831 55.2777 184.814 55.1316 184.709 55.0828Z" fill="#FFAA33" stroke="#2A2E32" stroke-width="0.5" stroke-linejoin="round"/>
<path d="M149.644 60.4295C149.559 60.4246 149.539 60.5488 149.624 60.5659C152.286 61.1261 158.152 62.5413 158.035 64.1002C157.925 65.5934 156.111 68.1997 155.176 69.4493C155.125 69.5175 155.218 69.5979 155.278 69.5419C156.971 67.983 161.59 64.0686 164.497 64.8992C164.57 64.9211 164.621 64.8261 164.561 64.7798C163.548 63.9687 161.456 61.7813 163.949 58.968C163.996 58.9168 163.949 58.8364 163.881 58.8559C162.91 59.1117 159.162 59.8107 156.771 56.0864C156.732 56.0279 156.642 56.0547 156.644 56.1253C156.681 57.1825 156.328 60.8167 149.639 60.4295H149.644Z" fill="#FFAA33" stroke="#2A2E32" stroke-width="0.5" stroke-linejoin="round"/>
<path d="M150.567 60.4295C150.481 60.4246 150.462 60.5488 150.547 60.5659C153.209 61.1261 159.075 62.5413 158.958 64.1002C158.841 65.6592 157.034 68.1997 156.099 69.4493C156.048 69.5175 156.14 69.5979 156.201 69.5419C157.894 67.983 162.513 64.0686 165.42 64.8992C165.493 64.9211 165.544 64.8261 165.483 64.7798C164.471 63.9687 162.379 61.7813 164.872 58.968C164.919 58.9168 164.872 58.8364 164.804 58.8559C163.833 59.1117 160.085 59.8107 157.694 56.0864C157.655 56.0279 157.565 56.0547 157.567 56.1253C157.604 57.1825 157.251 60.8167 150.562 60.4295H150.567Z" fill="#F9C540" stroke="#2A2E32" stroke-width="0.5" stroke-linejoin="round"/>
<path d="M180.268 65.7957C181.109 66.5946 183.975 69.0231 181.669 72.784C181.274 73.4271 179.94 74.7278 179.258 75.2199C175.333 78.0503 171.936 75.0128 170.76 72.879" fill="#FFAA33"/>
<path d="M180.268 65.7957C181.109 66.5946 183.975 69.0231 181.669 72.784C181.274 73.4271 179.94 74.7278 179.258 75.2199C175.333 78.0503 171.936 75.0128 170.76 72.879" stroke="#2A2E32" stroke-width="0.5" stroke-linejoin="round"/>
<path d="M178.495 74.3527C174.999 76.8884 171.607 74.0336 171.239 73.5781C170.472 72.6281 170.1 71.4833 170.1 70.3433C170.1 68.8356 170.752 67.3375 172.011 66.3193C172.011 66.3193 176.521 61.5719 180.745 66.2438C180.884 66.3973 180.994 66.5702 181.098 66.7407C181.627 67.5811 183.47 70.7452 178.495 74.3503V74.3527Z" fill="#F9C540" stroke="#2A2E32" stroke-width="0.5" stroke-linejoin="round"/>
<path d="M165.69 66.1221C167.026 67.1938 170.387 71.5247 167.789 75.3758C167.263 76.1577 165.604 77.8165 164.065 78.5862C159.775 80.7346 156.449 78.4108 154.221 75.6462" fill="#FFAA33"/>
<path d="M165.69 66.1221C167.026 67.1938 170.387 71.5247 167.789 75.3758C167.263 76.1577 165.604 77.8165 164.065 78.5862C159.775 80.7346 156.449 78.4108 154.221 75.6462" stroke="#2A2E32" stroke-width="0.5" stroke-linejoin="round"/>
<path d="M163.566 76.9639C159.193 80.1354 154.946 76.5645 154.486 75.9969C153.527 74.8082 153.062 73.376 153.062 71.9486C153.062 70.0608 153.88 68.1876 155.455 66.9137C155.455 66.9137 161.097 60.9752 166.381 66.8187C166.554 67.0087 166.69 67.2279 166.824 67.4398C167.484 68.4897 169.79 72.4479 163.569 76.9615L163.566 76.9639Z" fill="#F9C540" stroke="#2A2E32" stroke-width="0.5" stroke-linejoin="round"/>
<path d="M44.0887 84.5612C44.9288 85.3601 47.7948 87.7886 45.4889 91.5495C45.0944 92.1926 43.76 93.4933 43.0782 93.9854C39.153 96.8158 35.7562 93.7783 34.5801 91.6446" fill="#FFAA33"/>
<path d="M44.0887 84.5612C44.9288 85.3601 47.7948 87.7886 45.4889 91.5495C45.0944 92.1926 43.76 93.4933 43.0782 93.9854C39.153 96.8158 35.7562 93.7783 34.5801 91.6446" stroke="#2A2E32" stroke-width="0.5" stroke-linejoin="round"/>
<path d="M42.3158 93.1183C38.8191 95.654 35.4272 92.7992 35.0595 92.3437C34.2925 91.3937 33.9199 90.2489 33.9199 89.1089C33.9199 87.6011 34.5725 86.1031 35.8314 85.0849C35.8314 85.0849 40.341 80.3375 44.5657 85.0094C44.7045 85.1629 44.8141 85.3358 44.9188 85.5063C45.4472 86.3467 47.2905 89.5108 42.3158 93.1158V93.1183Z" fill="#F9C540" stroke="#2A2E32" stroke-width="0.5" stroke-linejoin="round"/>
<path d="M52.1533 84.0254L52.5381 84.2252C54.3521 82.4324 56.4121 78.5058 56.9746 75.4537C56.9917 75.3563 56.9137 75.2711 56.8163 75.2735L55.6013 75.3222C55.5209 75.3246 55.4552 75.3904 55.4552 75.4708C55.4454 76.1041 55.2068 78.8371 52.1558 84.0254H52.1533Z" fill="#FFAA33" stroke="#2A2E32" stroke-width="0.5" stroke-linejoin="round"/>
<path d="M57.4229 88.2588C57.4229 91.3475 54.9222 93.8491 51.8371 93.8491C49.6845 93.8491 47.8144 92.6312 46.8818 90.8457C45.8664 90.7385 44.8973 90.3463 44.0986 89.657C41.7927 87.6694 41.7342 83.9572 43.9671 81.3679C46.2 78.7786 50.6804 77.6313 52.1804 80.2766C53.0594 81.8258 52.4409 83.0583 52.6674 83.8208C54.7785 84.6197 57.4254 85.8669 57.4254 88.2588H57.4229Z" fill="#F9C540" stroke="#2A2E32" stroke-width="0.5" stroke-linejoin="round"/>
<path d="M62.9505 81.5969C61.8036 81.0683 56.5829 79.0417 52.665 83.8208C52.665 83.8208 57.3841 85.9668 62.9773 81.86C63.0722 81.7918 63.0552 81.6456 62.9505 81.5969Z" fill="#FFAA33" stroke="#2A2E32" stroke-width="0.5" stroke-linejoin="round"/>
</svg>
