<svg width="168" height="125" viewBox="0 0 168 125" fill="none" xmlns="http://www.w3.org/2000/svg">
<path d="M1.00308 69.6175L5.10786 123.277C5.18076 124.241 6.30284 124.732 7.06357 124.134L54.9168 86.4715L54.1117 111.439C54.08 112.458 55.2496 113.059 56.061 112.436L100.973 77.9939V101.75L150.122 58.9666C150.433 58.6946 150.585 58.2834 150.525 57.8753L142.337 3.55825C142.198 2.62508 141.085 2.20436 140.36 2.81488L92.0658 43.3874L95.2197 25.8152C95.4194 24.7049 94.1166 23.9521 93.2513 24.6765L63.7317 49.3344L62.3054 20.8014L1.46269 68.5768C1.14572 68.8267 0.974549 69.2157 1.00308 69.6175Z" fill="#FFAA33" stroke="#2A2E32" stroke-width="0.5" stroke-linejoin="round"/>
<path d="M61.6016 57.793C61.7981 59.6688 72.0965 57.1255 73.1203 59.8175C74.1156 62.4936 63.2245 64.2651 64.3814 67.8428C65.5542 71.3952 74.5689 67.1247 75.0729 70.6486C75.5768 74.1725 70.0045 75.2228 66.5939 75.6561" stroke="#2A2E32" stroke-width="0.5" stroke-linecap="round" stroke-linejoin="round"/>
<path d="M83.1464 48.3094C83.1464 48.3094 89.8598 46.6518 90.5984 49.1508C91.3401 51.653 82.9594 52.3236 83.1305 54.2026C83.2985 56.0816 93.635 53.6807 94.6207 56.3885C95.6065 59.0963 85.6536 62.2912 86.7598 65.8847" stroke="#2A2E32" stroke-width="0.5" stroke-linecap="round" stroke-linejoin="round"/>
<path d="M31.8036 60.4945C31.8036 60.4945 38.517 58.8369 39.2556 61.3359C39.9973 63.8381 31.6166 64.5087 31.7877 66.3877C31.9557 68.2667 42.2922 65.8657 43.278 68.5735C44.2637 71.2813 33.3219 72.8851 34.4281 76.4786C35.5502 80.0468 44.6251 75.8997 45.0815 79.4331C45.538 82.9666 39.9498 83.9377 36.5328 84.3236" stroke="#2A2E32" stroke-width="0.5" stroke-linecap="round" stroke-linejoin="round"/>
<path d="M14.6581 73.2395C14.6581 73.2395 21.3715 71.5819 22.1101 74.0809C22.8518 76.5831 14.4711 77.2537 14.6422 79.1327C14.8102 81.0117 25.1467 78.6107 26.1325 81.3185C27.1182 84.0263 16.1764 85.6301 17.2826 89.2236C18.4047 92.7918 27.4796 88.6447 27.936 92.1781C28.3925 95.7115 22.8043 96.6827 19.3873 97.0686" stroke="#2A2E32" stroke-width="0.5" stroke-linecap="round" stroke-linejoin="round"/>
<path d="M125.209 28.1877C125.209 28.1877 131.837 26.2233 132.693 28.6875C133.549 31.1517 125.209 32.2083 125.466 34.0778C125.722 35.9473 135.935 33.075 137.045 35.7322C138.126 38.3735 127.298 40.4961 128.566 44.0358C129.853 47.5471 138.725 42.9888 139.343 46.5001C139.945 50.0366 134.423 51.2355 131.029 51.7764" stroke="#2A2E32" stroke-width="0.5" stroke-linecap="round" stroke-linejoin="round"/>
<path d="M108.793 44.4186C108.793 44.4186 115.218 41.8659 116.293 44.2447C117.367 46.6235 109.157 48.4234 109.579 50.2613C110.001 52.0991 119.916 49.8817 121.259 52.4313" stroke="#2A2E32" stroke-width="0.5" stroke-linecap="round" stroke-linejoin="round"/>
<path d="M113.227 77.4783C112.891 77.6839 112.536 77.8579 112.165 78.0034L113.227 77.4783Z" fill="#FFAA33" stroke="#2A2E32" stroke-width="0.5" stroke-linejoin="round"/>
<path d="M113.261 77.4625L113.227 77.4783C113.227 77.4783 113.249 77.4688 113.258 77.4594H113.261V77.4625Z" fill="#FFAA33" stroke="#2A2E32" stroke-width="0.5" stroke-linejoin="round"/>
<path d="M124.511 113.331H108.913C95.4541 113.331 84.5059 102.405 84.5059 88.9736V76.1022C84.5059 62.6708 95.4541 51.7448 108.913 51.7448H124.511C137.969 51.7448 148.918 62.6708 148.918 76.1022C148.918 78.1836 148.902 87.6799 148.87 90.0966C151.596 92.0357 154.918 92.9942 158.271 92.8044L165.514 92.3932C166.164 92.3552 166.735 92.7475 166.931 93.3643C167.128 93.9812 166.893 94.6296 166.342 94.9776C166.342 94.9776 166.342 94.9776 166.338 94.9776L164.3 96.2492C155.086 102 145.295 106.944 135.199 110.936C135.186 110.94 135.177 110.946 135.164 110.949C134.888 111.047 128.34 113.328 124.508 113.328L124.511 113.331ZM108.913 53.6427C96.5032 53.6427 86.4077 63.7178 86.4077 76.1022V88.9736C86.4077 101.358 96.5032 111.433 108.913 111.433H124.511C127.928 111.433 134.147 109.295 134.518 109.168C144.499 105.217 154.179 100.33 163.292 94.6423L163.685 94.3987L158.379 94.6992C154.411 94.9238 150.49 93.7249 147.333 91.324C147.079 91.131 146.937 90.821 146.962 90.5015C146.987 90.0239 147.009 81.6285 147.016 76.1022C147.016 63.7178 136.92 53.6427 124.511 53.6427H108.913Z" fill="#F9C540" stroke="#2A2E32" stroke-width="0.5" stroke-linejoin="round"/>
<path d="M58.8409 59.4791H45.9433C32.4847 59.4791 21.5365 48.553 21.5365 35.1216V28.6653C18.6299 27.9536 15.6123 28.0643 12.7596 28.9975L5.39952 31.3953C4.77509 31.6041 4.09042 31.3542 3.74175 30.7911C3.39943 30.2343 3.47233 29.5289 3.92243 29.0576C4.42008 28.5009 16.3382 15.2498 28.1232 7.94256C28.4687 7.72745 28.8396 7.49653 29.2294 7.24979C33.5212 4.5515 40.0033 0.473999 45.9402 0.473999H58.8377C72.2964 0.473999 83.2446 11.4 83.2446 24.8314V35.1216C83.2446 48.553 72.2964 59.4791 58.8377 59.4791H58.8409ZM17.7265 26.3055C19.4128 26.3055 21.1023 26.5459 22.7537 27.0268C23.1594 27.1438 23.4384 27.5171 23.4384 27.9378V35.1216C23.4384 47.506 33.5339 57.5811 45.9433 57.5811H58.8409C71.2504 57.5811 81.3459 47.506 81.3459 35.1216V24.8314C81.3459 12.4471 71.2504 2.37198 58.8409 2.37198H45.9433C40.5548 2.37198 34.3517 6.2755 30.2469 8.85675C29.8539 9.10349 29.4798 9.34073 29.1312 9.55584C19.5523 15.4965 9.8498 25.4767 6.53111 29.0323L12.1732 27.1944C13.9831 26.6029 15.8564 26.3055 17.7297 26.3055H17.7265ZM4.80678 29.5922C4.80678 29.5922 4.80361 29.5922 4.80044 29.5922H4.80678Z" fill="#F9C540" stroke="#2A2E32" stroke-width="0.5" stroke-linejoin="round"/>
<path d="M55.8042 10.3816C56.7836 11.3116 60.1277 14.1396 57.4398 18.5176C56.9802 19.2641 55.4207 20.7794 54.6251 21.3519C50.0448 24.6481 46.0795 21.1083 44.707 18.6252" fill="#F9C540"/>
<path d="M55.8042 10.3816C56.7836 11.3116 60.1277 14.1396 57.4398 18.5176C56.9802 19.2641 55.4207 20.7794 54.6251 21.3519C50.0448 24.6481 46.0795 21.1083 44.707 18.6252" stroke="#2A2E32" stroke-width="0.5" stroke-linejoin="round"/>
<path d="M53.7341 20.346C49.6547 23.2973 45.6925 19.9759 45.2646 19.4444C44.3708 18.3373 43.9365 17.0055 43.9365 15.677C43.9365 13.9213 44.7004 12.1752 46.168 10.9921C46.168 10.9921 51.4297 5.46582 56.3618 10.9035C56.5235 11.0807 56.6503 11.2831 56.7739 11.4824C57.392 12.4599 59.541 16.1451 53.7373 20.3428L53.7341 20.346Z" fill="#F9C540" stroke="#2A2E32" stroke-width="0.5" stroke-linejoin="round"/>
<path d="M130.515 93.4846L131.003 93.7345C133.301 91.4696 135.909 86.5064 136.62 82.6503C136.642 82.5301 136.543 82.4194 136.42 82.4226L134.879 82.4827C134.778 82.4858 134.696 82.5681 134.692 82.6725C134.68 83.4696 134.379 86.9271 130.515 93.4815V93.4846Z" fill="#F9C540" stroke="#2A2E32" stroke-width="0.5" stroke-linejoin="round"/>
<path d="M137.19 98.8337C137.19 102.734 134.021 105.897 130.112 105.897C127.386 105.897 125.019 104.357 123.836 102.101C122.549 101.969 121.323 101.472 120.308 100.599C117.389 98.0872 117.313 93.3991 120.14 90.1251C122.968 86.8511 128.642 85.4023 130.543 88.7459C131.656 90.704 130.873 92.2604 131.161 93.2252C133.837 94.2343 137.187 95.8127 137.187 98.8337H137.19Z" fill="#F9C540" stroke="#2A2E32" stroke-width="0.5" stroke-linejoin="round"/>
<path d="M144.192 90.4163C142.737 89.7488 136.128 87.1897 131.164 93.2253C131.164 93.2253 137.139 95.9363 144.226 90.7484C144.347 90.6599 144.328 90.4764 144.192 90.4163Z" fill="#F9C540" stroke="#2A2E32" stroke-width="0.5" stroke-linejoin="round"/>
<path d="M112.695 59.5835C110.866 59.5835 109.04 60.2731 107.652 61.6586C106.263 63.0441 105.572 64.8662 105.572 66.6914C105.572 67.7353 105.797 68.7729 106.251 69.7314L106.552 70.3103L114.07 84.6938L119.218 69.5542L119.598 68.4344C119.598 68.4344 119.608 68.4123 119.608 68.3996C119.747 67.8397 119.817 67.264 119.817 66.6914C119.817 64.8662 119.126 63.0441 117.738 61.6586C116.349 60.2731 114.524 59.5835 112.695 59.5835ZM114.913 68.9057C113.652 70.1647 111.585 70.1647 110.321 68.9057C109.059 67.6468 109.059 65.5843 110.321 64.3221C111.582 63.06 113.649 63.0631 114.913 64.3221C116.178 65.5811 116.175 67.6436 114.913 68.9057Z" fill="#F9C540" stroke="#2A2E32" stroke-width="0.5" stroke-linejoin="round"/>
<path d="M43.8039 42.2517C41.6865 45.2853 42.536 49.5146 45.7311 51.4822C48.5521 53.2188 52.3241 52.5102 54.321 49.8689C56.3528 47.1801 55.9534 43.4632 53.5856 41.2426L56.4225 37.1745L59.3323 39.1959C59.4528 39.2813 59.6208 39.2497 59.7032 39.1295L60.4861 38.0097C60.5717 37.8895 60.54 37.7218 60.4195 37.6396L57.5098 35.6182L59.0534 33.4039C59.139 33.2837 59.1073 33.116 58.9868 33.0338L57.8648 32.2525C57.7443 32.167 57.5763 32.1987 57.4939 32.3189L55.9502 34.5332L53.2655 32.6668C53.1451 32.5814 52.9771 32.6131 52.8946 32.7333L52.1117 33.8531C52.0261 33.9733 52.0578 34.1409 52.1783 34.2232L54.863 36.0895L52.0261 40.1575C49.1892 38.7499 45.6677 39.5818 43.8039 42.2517ZM52.9105 48.5814C51.4619 50.6565 48.5902 51.169 46.5108 49.7234C44.4315 48.2777 43.918 45.4118 45.3666 43.3367C46.8151 41.2615 49.6869 40.7491 51.7662 42.1947C53.8456 43.6403 54.3591 46.5063 52.9105 48.5814Z" fill="#F9C540" stroke="#2A2E32" stroke-width="0.5" stroke-linejoin="round"/>
</svg>
