<svg width="188" height="114" viewBox="0 0 188 114" fill="none" xmlns="http://www.w3.org/2000/svg">
<path d="M87.0068 92.222L87.8393 92.6518C91.7664 88.7733 96.2233 80.2811 97.4369 73.6755C97.4747 73.4674 97.3071 73.2782 97.0963 73.2863L94.4638 73.3917C94.2881 73.3998 94.1476 73.5404 94.1449 73.7161C94.1233 75.0837 93.6097 81.0001 87.0068 92.222Z" fill="#FFAA33" stroke="#2A2E32" stroke-width="0.5" stroke-linejoin="round"/>
<path d="M186.999 14.671C187.001 14.6223 186.999 14.5737 186.999 14.525C186.999 14.498 186.999 14.4737 186.996 14.4466C186.991 14.3899 186.977 14.3331 186.961 14.2764C186.956 14.2602 186.956 14.2439 186.95 14.2277C186.929 14.1574 186.899 14.0899 186.866 14.025C186.858 14.0088 186.847 13.9953 186.839 13.9791C186.812 13.9304 186.783 13.8845 186.747 13.8385C186.734 13.8196 186.715 13.8034 186.701 13.7845C186.669 13.7466 186.634 13.7115 186.596 13.6764C186.577 13.6601 186.556 13.6439 186.537 13.6277C186.496 13.598 186.456 13.5682 186.412 13.5439C186.391 13.5304 186.372 13.5196 186.35 13.5061C186.296 13.479 186.239 13.4547 186.18 13.4331C186.169 13.4304 186.158 13.4223 186.147 13.4196C186.147 13.4196 186.142 13.4196 186.139 13.4196C186.066 13.398 185.991 13.3817 185.915 13.3736C185.893 13.3736 185.874 13.3736 185.853 13.3736C185.807 13.3736 185.764 13.3682 185.718 13.3709L168.333 14.3926C168.166 14.4034 168.036 14.5466 168.047 14.7142L168.155 16.5332C168.166 16.7008 168.309 16.8305 168.477 16.8197L180.926 16.0899L142.327 39.2852C142.249 39.3339 134.346 44.2989 126.04 48.6774C110.413 56.9182 108.167 55.3533 107.961 55.1479C107.932 55.1181 107.845 55.0317 107.856 54.71C108.002 50.4558 121.372 37.2392 129.765 29.9066C130.246 29.4849 130.319 28.7633 129.932 28.2552C129.546 27.747 128.829 27.6254 128.294 27.9741L91.5445 52.1505C91.5283 52.1613 91.5121 52.1721 91.4986 52.1829C91.4202 52.2397 83.6929 57.8426 75.4981 63.0779C60.6544 72.5619 57.6597 72.3214 57.2029 72.17C56.9354 71.4727 56.7678 68.6699 62.9112 58.9426C66.4573 53.3289 70.3493 48.2288 70.3871 48.1774C70.7574 47.6963 70.7115 47.0152 70.2844 46.5828C69.8574 46.1503 69.1763 46.1017 68.6925 46.4638L1.05529 97.0465C0.993129 97.0924 0.982319 97.1789 1.02827 97.2383L2.3202 98.9654C2.36614 99.0276 2.45263 99.0384 2.51209 98.9925L63.8221 53.1424C62.868 54.5344 61.8517 56.0614 60.8625 57.629C54.0542 68.405 54.2812 71.7349 55.0434 73.3025C55.2542 73.7349 55.6975 74.2971 56.611 74.5241C58.33 74.9539 62.3436 74.4133 77.3117 64.8022C85.1524 59.7669 92.4364 54.5046 92.904 54.1668L117.829 37.769C117.559 38.0393 117.289 38.3122 117.018 38.5852C105.577 50.1694 105.461 53.5235 105.423 54.6235C105.385 55.7587 105.845 56.4668 106.237 56.8614C107.759 58.3885 111.515 59.0804 127.183 50.818C135.57 46.3963 143.541 41.388 143.597 41.3529L183.688 17.2629L180.293 28.2903C180.245 28.4498 180.331 28.6173 180.488 28.6687L182.218 29.2471C182.38 29.3012 182.555 29.212 182.607 29.0471L186.95 14.9413C186.956 14.925 186.956 14.9115 186.958 14.8953C186.972 14.8467 186.98 14.798 186.988 14.7494C186.991 14.7223 186.996 14.6953 186.999 14.6656V14.671Z" fill="#FFAA33" stroke="#2A2E32" stroke-width="0.5" stroke-linejoin="round"/>
<path d="M170.998 61.2481C172.814 62.9752 179.014 68.2321 174.03 76.3648C173.179 77.754 170.29 80.5676 168.814 81.6325C160.322 87.757 152.97 81.1811 150.427 76.5675" fill="#FFAA33"/>
<path d="M170.998 61.2481C172.814 62.9752 179.014 68.2321 174.03 76.3648C173.179 77.754 170.29 80.5676 168.814 81.6325C160.322 87.757 152.97 81.1811 150.427 76.5675" stroke="#2A2E32" stroke-width="0.5" stroke-linejoin="round"/>
<path d="M39.5972 19.8603C42.4919 22.1766 49.7597 31.5444 44.1406 39.8771C43.0028 41.5664 39.4135 45.1557 36.0836 46.8233C26.7996 51.4694 19.6047 46.4422 14.7803 40.4636" fill="#FFAA33"/>
<path d="M39.5972 19.8603C42.4919 22.1766 49.7597 31.5444 44.1406 39.8771C43.0028 41.5664 39.4135 45.1557 36.0836 46.8233C26.7996 51.4694 19.6047 46.4422 14.7803 40.4636" stroke="#2A2E32" stroke-width="0.5" stroke-linejoin="round"/>
<path d="M98.4102 101.382C98.4102 108.06 92.9965 113.474 86.3206 113.474C81.661 113.474 77.6176 110.839 75.5987 106.977C73.4013 106.747 71.3066 105.898 69.5742 104.403C64.5848 100.103 64.4578 92.0761 69.2877 86.4732C74.1175 80.8703 83.8124 78.3892 87.0612 84.1137C88.9612 87.4651 87.6234 90.1301 88.1153 91.7815C92.6857 93.5086 98.4102 96.2086 98.4102 101.382Z" fill="#F9C540" stroke="#2A2E32" stroke-width="0.5" stroke-linejoin="round"/>
<path d="M88.1388 8.77395C87.9782 8.7647 87.9456 8.99364 88.1016 9.02601C93.0611 10.062 103.995 12.6797 103.781 15.5679C103.576 18.3313 100.193 23.1527 98.4538 25.4674C98.3606 25.5923 98.5283 25.7449 98.6447 25.6386C101.8 22.7526 110.408 15.5101 115.831 17.0455C115.968 17.0849 116.061 16.9114 115.952 16.8236C114.064 15.3251 110.166 11.276 114.813 6.0684C114.897 5.97359 114.809 5.82791 114.685 5.86028C112.876 6.33664 105.886 7.62698 101.432 0.733603C101.362 0.624918 101.19 0.675793 101.194 0.805289C101.264 2.76161 100.603 9.4885 88.1365 8.77164L88.1388 8.77395Z" fill="#FFAA33" stroke="#2A2E32" stroke-width="0.5" stroke-linejoin="round"/>
<path d="M90.1388 8.77395C89.9782 8.7647 89.9456 8.99364 90.1016 9.02601C95.0611 10.062 105.995 12.6797 105.781 15.5679C105.576 18.3313 102.193 23.1527 100.454 25.4674C100.361 25.5923 100.528 25.7449 100.645 25.6386C103.8 22.7526 112.408 15.5101 117.831 17.0455C117.968 17.0849 118.061 16.9114 117.952 16.8236C116.064 15.3251 112.166 11.276 116.813 6.0684C116.897 5.97359 116.809 5.82791 116.685 5.86028C114.876 6.33664 107.886 7.62698 103.432 0.733603C103.362 0.624918 103.19 0.675793 103.194 0.805289C103.264 2.76161 102.603 9.4885 90.1365 8.77164L90.1388 8.77395Z" fill="#F9C540" stroke="#2A2E32" stroke-width="0.5" stroke-linejoin="round"/>
<path d="M167.16 79.7594C159.595 85.2434 152.252 79.0702 151.457 78.0864C149.798 76.0323 148.992 73.5538 148.992 71.0889C148.992 67.8266 150.406 64.586 153.13 62.3859C153.13 62.3859 162.887 52.1181 172.028 62.2211C172.328 62.5508 172.563 62.9265 172.793 63.2968C173.936 65.1131 177.923 71.9565 167.16 79.7594Z" fill="#F9C540" stroke="#2A2E32" stroke-width="0.5" stroke-linejoin="round"/>
<path d="M35.0029 43.3097C25.5404 50.1694 16.351 42.4475 15.3563 41.2178C13.2806 38.6474 12.2725 35.5473 12.2725 32.4635C12.2725 28.3823 14.0401 24.3281 17.4483 21.5739C17.4483 21.5739 29.6568 8.7276 41.0923 21.3685C41.4652 21.782 41.7625 22.2523 42.049 22.7145C43.4788 24.9876 48.4682 33.55 35.0029 43.3124V43.3097Z" fill="#F9C540" stroke="#2A2E32" stroke-width="0.5" stroke-linejoin="round"/>
<path d="M110.372 86.9705C107.888 85.8272 96.5958 81.446 88.1172 91.7815C88.1172 91.7815 98.3256 96.4222 110.431 87.5408C110.634 87.3921 110.602 87.0759 110.375 86.9705H110.372Z" fill="#FFAA33" stroke="#2A2E32" stroke-width="0.5" stroke-linejoin="round"/>
</svg>
