<svg xmlns="http://www.w3.org/2000/svg" width="76" height="62" viewBox="0 0 76 62" fill="none">
  <path d="M38.1803 48.7967H62.5054C64.9856 48.7967 66.9884 51.4865 66.9884 54.8051C66.9884 58.1238 64.9856 60.8136 62.5054 60.8136H29.3423H18.7576C8.95308 60.8136 1 50.0543 1 36.7797C1 24.2621 4.27206 16.111 12.9122 11.8376C16.4404 10.0094 28.434 1.2878 28.434 1.2878C31.1821 0.274743 34.1281 2.02139 35.0131 5.18865C35.8864 8.35591 33.3363 12.9787 30.5766 13.9801L61.7601 12.7342C64.6479 12.7342 66.9884 15.424 66.9884 18.7426C66.9884 22.0613 64.6479 24.7511 61.7601 24.7511" fill="#F9C540"/>
  <path d="M38.1803 48.7967H62.5054C64.9856 48.7967 66.9884 51.4865 66.9884 54.8051C66.9884 58.1238 64.9856 60.8136 62.5054 60.8136H29.3423H18.7576C8.95308 60.8136 1 50.0543 1 36.7797C1 24.2621 4.27206 16.111 12.9122 11.8376C16.4404 10.0094 28.434 1.2878 28.434 1.2878C31.1821 0.274743 34.1281 2.02139 35.0131 5.18865C35.8864 8.35591 33.3363 12.9787 30.5766 13.9801L61.7601 12.7342C64.6479 12.7342 66.9884 15.424 66.9884 18.7426C66.9884 22.0613 64.6479 24.7511 61.7601 24.7511" stroke="#2A2E32" stroke-width="0.5" stroke-linecap="round" stroke-linejoin="round"/>
  <path d="M38.1807 24.7628H69.7717C72.6595 24.7628 75 27.4526 75 30.7713C75 34.0899 72.6595 36.7797 69.7717 36.7797H38.1807" fill="#F9C540"/>
  <path d="M38.1807 24.7628H69.7717C72.6595 24.7628 75 27.4526 75 30.7713C75 34.0899 72.6595 36.7797 69.7717 36.7797H38.1807" stroke="#2A2E32" stroke-width="0.5" stroke-linecap="round" stroke-linejoin="round"/>
  <path d="M38.1807 36.7797H66.3599C69.2477 36.7797 71.5882 39.4696 71.5882 42.7882C71.5882 46.1068 69.2477 48.7967 66.3599 48.7967H38.1807" fill="#F9C540"/>
  <path d="M38.1807 36.7797H66.3599C69.2477 36.7797 71.5882 39.4696 71.5882 42.7882C71.5882 46.1068 69.2477 48.7967 66.3599 48.7967H38.1807" stroke="#2A2E32" stroke-width="0.5" stroke-linecap="round" stroke-linejoin="round"/>
  <path d="M30.5764 13.9918H24.8008" stroke="#2A2E32" stroke-width="0.5" stroke-linecap="round" stroke-linejoin="round"/>
</svg>