<svg xmlns="http://www.w3.org/2000/svg" width="76" height="62" viewBox="0 0 76 62" fill="none">
  <path d="M37.8197 48.7967H13.4946C11.0144 48.7967 9.01158 51.4865 9.01158 54.8051C9.01158 58.1238 11.0144 60.8136 13.4946 60.8136H46.6577H57.2424C67.0469 60.8136 75 50.0543 75 36.7797C75 24.2621 71.7279 16.111 63.0878 11.8376C59.5596 10.0094 47.566 1.2878 47.566 1.2878C44.8179 0.274743 41.8719 2.02139 40.9869 5.18865C40.1136 8.35591 42.6637 12.9787 45.4234 13.9801L14.2399 12.7342C11.3521 12.7342 9.01158 15.424 9.01158 18.7426C9.01158 22.0613 11.3521 24.7511 14.2399 24.7511" fill="#F9C540"/>
  <path d="M37.8197 48.7967H13.4946C11.0144 48.7967 9.01158 51.4865 9.01158 54.8051C9.01158 58.1238 11.0144 60.8136 13.4946 60.8136H46.6577H57.2424C67.0469 60.8136 75 50.0543 75 36.7797C75 24.2621 71.7279 16.111 63.0878 11.8376C59.5596 10.0094 47.566 1.2878 47.566 1.2878C44.8179 0.274743 41.8719 2.02139 40.9869 5.18865C40.1136 8.35591 42.6637 12.9787 45.4234 13.9801L14.2399 12.7342C11.3521 12.7342 9.01158 15.424 9.01158 18.7426C9.01158 22.0613 11.3521 24.7511 14.2399 24.7511" stroke="#2A2E32" stroke-width="0.5" stroke-linecap="round" stroke-linejoin="round"/>
  <path d="M37.8193 24.7628H6.22826C3.34047 24.7628 0.999962 27.4526 0.999962 30.7713C0.999962 34.0899 3.34047 36.7797 6.22826 36.7797H37.8193" fill="#F9C540"/>
  <path d="M37.8193 24.7628H6.22826C3.34047 24.7628 0.999961 27.4526 0.999961 30.7713C0.999961 34.0899 3.34047 36.7797 6.22826 36.7797H37.8193" stroke="#2A2E32" stroke-width="0.5" stroke-linecap="round" stroke-linejoin="round"/>
  <path d="M37.8193 36.7797H9.64005C6.75226 36.7797 4.41175 39.4696 4.41175 42.7882C4.41175 46.1068 6.75226 48.7967 9.64005 48.7967H37.8193" fill="#F9C540"/>
  <path d="M37.8193 36.7797H9.64005C6.75226 36.7797 4.41175 39.4696 4.41175 42.7882C4.41175 46.1068 6.75226 48.7967 9.64005 48.7967H37.8193" stroke="#2A2E32" stroke-width="0.5" stroke-linecap="round" stroke-linejoin="round"/>
  <path d="M45.4236 13.9918H51.1992" stroke="#2A2E32" stroke-width="0.5" stroke-linecap="round" stroke-linejoin="round"/>
</svg>