<svg width="38" height="38" viewBox="0 0 38 38" fill="none" xmlns="http://www.w3.org/2000/svg">
<path d="M27.8404 0.394531H11.0443C5.46908 0.394531 0.942383 4.92894 0.942383 10.528V27.2611C0.942383 32.8537 5.46269 37.3945 11.0443 37.3945H27.8404C33.4157 37.3945 37.9424 32.8601 37.9424 27.2611V10.528C37.9424 4.93535 33.4221 0.394531 27.8404 0.394531ZM19.4456 26.1387C15.4559 26.1387 12.2208 22.8934 12.2208 18.8913C12.2208 14.8892 15.4559 11.644 19.4456 11.644C23.4352 11.644 26.6704 14.8892 26.6704 18.8913C26.6704 22.8934 23.4352 26.1387 19.4456 26.1387ZM28.5885 10.5857C27.5655 10.5857 26.7407 9.75837 26.7407 8.7322C26.7407 7.70602 27.5655 6.87867 28.5885 6.87867C29.6115 6.87867 30.4363 7.70602 30.4363 8.7322C30.4363 9.75837 29.6115 10.5857 28.5885 10.5857Z" fill="#FFAA33"/>
</svg>
