<svg xmlns="http://www.w3.org/2000/svg" width="31" height="30" viewBox="0 0 31 30" fill="none">
  <path d="M22.3092 0H8.69077C4.1703 0 0.5 3.67655 0.5 8.21633V21.7837C0.5 26.3183 4.16511 30 8.69077 30H22.3092C26.8297 30 30.5 26.3235 30.5 21.7837V8.21633C30.5 3.68175 26.8349 0 22.3092 0ZM15.5026 20.8736C12.2678 20.8736 9.64463 18.2423 9.64463 14.9974C9.64463 11.7525 12.2678 9.12117 15.5026 9.12117C18.7374 9.12117 21.3606 11.7525 21.3606 14.9974C21.3606 18.2423 18.7374 20.8736 15.5026 20.8736ZM22.9158 8.26313C22.0863 8.26313 21.4176 7.5923 21.4176 6.76027C21.4176 5.92824 22.0863 5.25741 22.9158 5.25741C23.7452 5.25741 24.4139 5.92824 24.4139 6.76027C24.4139 7.5923 23.7452 8.26313 22.9158 8.26313Z" fill="#2A2E32"/>
</svg>