<svg xmlns="http://www.w3.org/2000/svg" width="31" height="30" viewBox="0 0 31 30" fill="none">
  <path d="M22.3092 0H8.69077C4.1703 0 0.5 3.67655 0.5 8.21633V21.7837C0.5 26.3183 4.16511 30 8.69077 30H22.3092C26.8297 30 30.5 26.3235 30.5 21.7837V8.21633C30.5 3.68175 26.8349 0 22.3092 0ZM23.683 13.7025C22.0448 13.7025 20.5415 13.1305 19.3595 12.1789V18.4763C19.3595 21.5913 16.8401 24.1186 13.7348 24.1186C10.6296 24.1186 8.11016 21.5913 8.11016 18.4763C8.11016 15.3614 10.6296 12.8341 13.7348 12.8341C14.1807 12.8341 14.6161 12.8861 15.0308 12.9849V15.7306C14.6369 15.5434 14.1962 15.4394 13.7348 15.4394C12.0604 15.4394 10.7074 16.7967 10.7074 18.4763C10.7074 20.156 12.0656 21.5133 13.7348 21.5133C15.4041 21.5133 16.7623 20.1508 16.7623 18.4763V6.76027H19.3595C19.3595 9.15757 21.2983 11.0972 23.683 11.0972V13.7025Z" fill="#2A2E32"/>
</svg>