<svg width="38" height="38" viewBox="0 0 38 38" fill="none" xmlns="http://www.w3.org/2000/svg">
<path d="M27.8404 0.394531H11.0443C5.46908 0.394531 0.942383 4.92894 0.942383 10.528V27.2611C0.942383 32.8537 5.46269 37.3945 11.0443 37.3945H27.8404C33.4157 37.3945 37.9424 32.8601 37.9424 27.2611V10.528C37.9424 4.93536 33.4221 0.394531 27.8404 0.394531ZM29.5347 17.2943C27.5144 17.2943 25.6602 16.5888 24.2024 15.4152V23.182C24.2024 27.0238 21.0951 30.1408 17.2653 30.1408C13.4356 30.1408 10.3282 27.0238 10.3282 23.182C10.3282 19.3403 13.4356 16.2233 17.2653 16.2233C17.8152 16.2233 18.3523 16.2874 18.8638 16.4093V19.7956C18.3778 19.5648 17.8344 19.4365 17.2653 19.4365C15.2002 19.4365 13.5315 21.1104 13.5315 23.182C13.5315 25.2536 15.2066 26.9276 17.2653 26.9276C19.3241 26.9276 20.9992 25.2472 20.9992 23.182V8.7322H24.2024C24.2024 11.6889 26.5937 14.0811 29.5347 14.0811V17.2943Z" fill="#FFAA33"/>
</svg>
