<svg xmlns="http://www.w3.org/2000/svg" width="31" height="30" viewBox="0 0 31 30" fill="none">
  <path d="M10.1685 9.0769L19.2042 20.9121H20.6765L11.6407 9.0769H10.1685Z" fill="#2A2E32"/>
  <path d="M22.3092 0.0466309H8.69077C4.1703 0.0466309 0.5 3.71174 0.5 8.2374V21.7625C0.5 26.283 4.16511 29.9533 8.69077 29.9533H22.3092C26.8297 29.9533 30.5 26.2882 30.5 21.7625V8.2374C30.5 3.71693 26.8349 0.0466309 22.3092 0.0466309ZM18.2916 22.5142L14.3828 17.3043L9.852 22.5142H7.29627L13.1957 15.7231L7.01115 7.48053H12.698L16.3528 12.3535L20.5881 7.48053H23.1439L17.5347 13.9347L23.9681 22.5142H18.2812H18.2916Z" fill="#2A2E32"/>
</svg>