<svg width="102" height="70" viewBox="0 0 102 70" fill="none" xmlns="http://www.w3.org/2000/svg">
<g id="Kreativnost Ill">
<path id="Vector" d="M84.3557 25.245L88.1289 38.4677L101.36 42.2491L88.1289 46.0223L84.3557 59.245L80.5825 46.0223L67.3599 42.2491L80.5825 38.4677L84.3557 25.245Z" fill="#FFAA33" stroke="#2A2E32" stroke-linejoin="round"/>
<path id="Vector_2" d="M32.8832 18.0404L41.2018 1.245L43.318 19.8647L59.9066 11.169L50.6759 27.4658L69.2104 30.19L52.1596 37.9492L65.5619 51.0474L47.1976 47.3138L50.3353 65.7754L37.6871 51.9596L29.3684 68.755L27.2644 50.1353L10.6636 58.831L19.8944 42.522L1.35986 39.81L18.4107 32.0386L5.00839 18.9404L23.3727 22.6862L20.2349 4.21246L32.8832 18.0404Z" fill="#FFAA33" stroke="#2A2E32" stroke-linejoin="round"/>
</g>
</svg>
