<svg width="102" height="74" viewBox="0 0 102 74" fill="none" xmlns="http://www.w3.org/2000/svg">
<g id="Odgovornost Ill">
<g id="Group">
<g id="Vector">
<path d="M50.7718 58.5275H16.4013C13.4248 58.5275 10.9995 61.7612 10.9995 65.7666C10.9995 69.7597 13.4125 73.0057 16.4013 73.0057H61.4161H79.9855C91.7935 73.0057 101.36 60.0463 101.36 44.0615C101.36 28.9953 97.4157 19.1839 87.0164 14.0393C82.766 11.8345 62.5185 1.3372 62.5185 1.3372C59.1991 0.124558 55.6591 2.23137 54.6057 6.02854C53.5523 9.83796 55.3774 13.9046 58.6969 15.1173L17.32 15.1173C13.8413 15.1173 11.024 18.351 11.024 22.3564C11.024 26.3495 13.8413 29.5955 17.32 29.5955" fill="#FFAA33"/>
<path d="M50.7718 58.5275H16.4013C13.4248 58.5275 10.9995 61.7612 10.9995 65.7666C10.9995 69.7597 13.4125 73.0057 16.4013 73.0057H61.4161H79.9855C91.7935 73.0057 101.36 60.0463 101.36 44.0615C101.36 28.9953 97.4157 19.1839 87.0164 14.0393C82.766 11.8345 62.5185 1.3372 62.5185 1.3372C59.1991 0.124558 55.6591 2.23137 54.6057 6.02854C53.5523 9.83796 55.3774 13.9046 58.6969 15.1173L17.32 15.1173C13.8413 15.1173 11.024 18.351 11.024 22.3564C11.024 26.3495 13.8413 29.5955 17.32 29.5955" stroke="#2A2E32" stroke-width="0.75" stroke-linejoin="round"/>
</g>
<g id="Vector_2">
<path d="M50.7721 29.5833H7.65581C4.17712 29.5833 1.35986 32.817 1.35986 36.8224C1.35986 40.8155 4.17712 44.0615 7.65581 44.0615H50.7721" fill="#FFAA33"/>
<path d="M50.7721 29.5833H7.65581C4.17712 29.5833 1.35986 32.817 1.35986 36.8224C1.35986 40.8155 4.17712 44.0615 7.65581 44.0615H50.7721" stroke="#2A2E32" stroke-width="0.75" stroke-linejoin="round"/>
</g>
<g id="Vector_3">
<path d="M50.7717 44.0615H11.7588C8.28014 44.0615 5.46289 47.2952 5.46289 51.3006C5.46289 55.2938 8.28014 58.5398 11.7588 58.5398H50.7717" fill="#FFAA33"/>
<path d="M50.7717 44.0615H11.7588C8.28014 44.0615 5.46289 47.2952 5.46289 51.3006C5.46289 55.2938 8.28014 58.5398 11.7588 58.5398H50.7717" stroke="#2A2E32" stroke-width="0.75" stroke-linejoin="round"/>
</g>
</g>
<path id="Vector_4" d="M80.7999 33.6495C78.1906 32.8273 75.3958 34.2508 74.5673 36.8399V36.8154L73.6769 39.8831L72.3537 36.8522C71.5252 34.263 68.7304 32.8273 66.1211 33.6618C63.5118 34.4839 62.0649 37.2571 62.9058 39.8463L74.5796 54.5222L84.0399 39.8463C84.8684 37.2571 83.4339 34.4839 80.8246 33.6618L80.7999 33.6495Z" fill="#FFFEFD" stroke="#2A2E32" stroke-width="0.75" stroke-linejoin="round"/>
</g>
</svg>
