<svg width="102" height="75" viewBox="0 0 102 75" fill="none" xmlns="http://www.w3.org/2000/svg">
<g id="Priroda Ill">
<path id="Vector" d="M99.436 28.272C96.6168 22.6443 92.0515 19.4991 86.792 18.5629C84.8986 18.2263 83.0051 18.2157 81.1643 18.4682C81.1853 17.3532 81.1117 16.2381 80.9223 15.1126C79.9441 9.14826 76.4096 4.2674 69.6879 2.02683C63.7131 0.0387161 58.2642 1.04855 53.8882 4.09909C52.1105 5.34034 50.6168 6.87614 49.4281 8.60127C48.3867 7.32846 47.177 6.18187 45.8096 5.20359C40.8971 1.66917 34.9538 0.722457 28.6213 3.89923C22.9936 6.71835 19.8484 11.2836 18.9122 16.5432C18.502 18.8469 18.5651 21.14 19.0174 23.3491C17.8393 23.3175 16.6611 23.3911 15.4725 23.591C9.50812 24.5693 4.62726 28.1037 2.38669 34.8254C0.398578 40.8003 1.40841 46.2597 4.45895 50.6251C8.68764 56.6841 16.2404 59.4927 23.4985 58.0831L52.0158 52.5606C52.2262 52.7394 81.038 53.6756 81.038 53.6756C87.7282 53.865 94.2185 50.8986 98.1211 45.4707C101.655 40.5583 102.602 34.615 99.4254 28.2825L99.436 28.272Z" fill="#FFAA33" stroke="#2A2E32" stroke-linejoin="round"/>
<path id="Vector_2" d="M61.5248 65.8042H48.8072C45.7883 65.8042 42.906 67.0454 40.8127 69.2334C38.7194 71.4214 35.8372 73.9039 33.6387 73.9039C30.22 73.9039 28.2214 70.927 28.1056 69.307C27.9163 66.7193 28.7999 62.8694 33.6387 62.4591C38.4775 62.0489 52.1102 59.9345 52.4679 54.2963V52.3292L71.0341 41.9679" stroke="#2A2E32" stroke-miterlimit="10"/>
<path id="Vector_3" d="M52.4683 53.1814L61.5252 26.3893" stroke="#2A2E32" stroke-miterlimit="10"/>
<path id="Vector_4" d="M52.468 53.1814L41.2441 26.3893" stroke="#2A2E32" stroke-miterlimit="10"/>
<path id="Vector_5" d="M52.4682 52.3293L31.9033 44.7345" stroke="#2A2E32" stroke-miterlimit="10"/>
</g>
</svg>
