<svg width="102" height="54" viewBox="0 0 102 54" fill="none" xmlns="http://www.w3.org/2000/svg">
<g id="Ravnopravnost Ill">
<path id="Vector" d="M7.28015 1.44019H3.13523C1.87858 1.44019 0.859863 2.20423 0.859863 3.14672V50.8532C0.859863 51.7957 1.87858 52.5598 3.13523 52.5598H7.28015C8.5368 52.5598 9.55552 51.7957 9.55552 50.8532V3.14672C9.55552 2.20423 8.5368 1.44019 7.28015 1.44019Z" fill="#FFAA33" stroke="#2A2E32" stroke-linejoin="round"/>
<path id="Vector_2" d="M37.715 1.44019H33.57C32.3134 1.44019 31.2947 2.20423 31.2947 3.14672V50.8532C31.2947 51.7957 32.3134 52.5598 33.57 52.5598H37.715C38.9716 52.5598 39.9903 51.7957 39.9903 50.8532V3.14672C39.9903 2.20423 38.9716 1.44019 37.715 1.44019Z" fill="#FFAA33" stroke="#2A2E32" stroke-linejoin="round"/>
<path id="Vector_3" d="M68.1498 1.44019H64.0049C62.7482 1.44019 61.7295 2.20423 61.7295 3.14672V50.8532C61.7295 51.7957 62.7482 52.5598 64.0049 52.5598H68.1498C69.4064 52.5598 70.4251 51.7957 70.4251 50.8532V3.14672C70.4251 2.20423 69.4064 1.44019 68.1498 1.44019Z" fill="#FFAA33" stroke="#2A2E32" stroke-linejoin="round"/>
<path id="Vector_4" d="M98.5843 1.44019H94.4394C93.1828 1.44019 92.1641 2.20423 92.1641 3.14672V50.8532C92.1641 51.7957 93.1828 52.5598 94.4394 52.5598H98.5843C99.841 52.5598 100.86 51.7957 100.86 50.8532V3.14672C100.86 2.20423 99.841 1.44019 98.5843 1.44019Z" fill="#FFAA33" stroke="#2A2E32" stroke-linejoin="round"/>
</g>
</svg>
