<svg width="102" height="70" viewBox="0 0 102 70" fill="none" xmlns="http://www.w3.org/2000/svg">
<g id="Zajedni&#197;&#161;tvo Ill">
<path id="Vector" d="M22.7885 69.219C18.8437 69.219 15.6456 66.32 15.6456 62.7441C15.6456 66.32 12.4475 69.219 8.50273 69.219C4.55797 69.219 1.35986 66.32 1.35986 62.7441V46.8952C1.35986 32.727 14.1523 21.2436 29.9313 21.2436C45.7103 21.2436 58.5028 32.727 58.5028 46.8952V62.7441C58.5028 66.32 55.3047 69.219 51.3599 69.219C47.4152 69.219 44.217 66.32 44.217 62.7441C44.217 66.32 41.0189 69.219 37.0742 69.219H22.7885Z" fill="#FFAA33" stroke="#2A2E32" stroke-linecap="round" stroke-linejoin="round"/>
<path id="Vector_2" d="M39.4136 9.38793C39.4136 4.63446 35.1655 0.781006 29.9251 0.781006C24.6847 0.781006 20.4365 4.63446 20.4365 9.38793V12.6367C20.4365 17.3902 24.6847 21.2436 29.9251 21.2436C35.1655 21.2436 39.4136 17.3902 39.4136 12.6367V9.38793Z" fill="#FFAA33" stroke="#2A2E32" stroke-linecap="round" stroke-linejoin="round"/>
<g id="Group">
<path id="Vector_3" d="M65.6454 69.219C61.7006 69.219 58.5025 66.32 58.5025 62.7441C58.5025 66.32 55.3044 69.219 51.3597 69.219C47.4149 69.219 44.2168 66.32 44.2168 62.7441V46.8952C44.2168 32.727 57.0093 21.2436 72.7883 21.2436C88.5673 21.2436 101.36 32.727 101.36 46.8952V62.7441C101.36 66.32 98.1616 69.219 94.2169 69.219C90.2721 69.219 87.074 66.32 87.074 62.7441C87.074 66.32 83.8759 69.219 79.9311 69.219H65.6454Z" fill="#FFAA33" stroke="#2A2E32" stroke-linecap="round" stroke-linejoin="round"/>
<path id="Vector_4" d="M81.1627 9.38787C81.1627 4.63439 76.9145 0.780945 71.6741 0.780945C66.4337 0.780945 62.1855 4.63439 62.1855 9.38787V12.6366C62.1855 17.3901 66.4337 21.2435 71.6741 21.2435C76.9145 21.2435 81.1627 17.3901 81.1627 12.6366V9.38787Z" fill="#FFAA33" stroke="#2A2E32" stroke-linecap="round" stroke-linejoin="round"/>
</g>
</g>
</svg>
